<svg width="50" height="50" viewBox="0 0 65 65" fill="none" xmlns="http://www.w3.org/2000/svg">
<g clip-path="url(#clip0_31_173)">
<path fill-rule="evenodd" clip-rule="evenodd" d="M31.3385 0.744492C23.5755 1.28339 16.9202 6.0508 13.9515 13.1994C13.7102 13.78 13.7269 13.7567 13.4967 13.8423C4.74644 17.0989 -0.688184 26.6411 0.847516 36.0517C1.97956 42.9883 6.56862 48.8421 12.9842 51.5338C13.575 51.7815 13.5163 51.7212 13.7586 52.333C17.219 61.0704 26.5144 66.2923 35.7915 64.7111C42.5727 63.5548 48.3672 58.9449 51.0071 52.6059C51.3006 51.9012 51.2362 51.9706 51.8029 51.747C60.4626 48.3289 65.7042 38.8884 64.1321 29.539C62.9773 22.6664 58.3918 16.8517 52.0161 14.1742C51.4292 13.9278 51.4841 13.9831 51.2607 13.4138C48.7178 6.93114 42.7172 2.10681 35.7907 0.975904C34.5714 0.776837 32.4562 0.666826 31.3385 0.744492ZM33.7972 3.37348C39.8355 3.81974 45.3514 7.42707 48.0698 12.7073C48.2311 13.0205 48.2458 13.0103 47.7565 12.9215C44.6232 12.3527 40.8365 12.5932 37.7846 13.555L37.28 13.7139L37.035 13.5694C34.3347 11.9755 30.7645 12.009 28.2116 13.6525L28.0083 13.7832L27.2629 13.5313C24.2394 12.5084 20.7285 12.2234 17.563 12.7438C17.2595 12.7937 17.0112 12.8205 17.0112 12.8035C17.0112 12.737 17.6165 11.7097 17.9613 11.191C21.4694 5.91243 27.5484 2.91146 33.7972 3.37348ZM33.7302 15.0859C33.8851 15.1144 34.0191 15.1451 34.028 15.1542C34.0369 15.1629 33.9015 15.2558 33.7271 15.36C33.5526 15.4644 33.1895 15.6958 32.9204 15.8743L32.4304 16.1992L31.7655 15.7522C31.3997 15.5064 31.0843 15.3051 31.0644 15.3051C30.9701 15.3051 31.0448 15.2262 31.1739 15.1899C31.3149 15.15 31.8775 15.0503 32.1515 15.0166C32.3948 14.9868 33.442 15.0327 33.7302 15.0859ZM22.9163 15.2218C23.877 15.3382 25.1021 15.5816 25.7109 15.7769L25.8338 15.8163L25.5924 16.1749C24.1114 18.3751 23.6984 21.3815 24.5674 23.6371C24.7759 24.1786 25.0194 24.5815 25.5059 25.1909C25.5773 25.2804 25.5916 25.3285 25.5662 25.3952C25.5335 25.4806 25.5257 25.478 25.1733 25.2614C22.4129 23.5652 18.7323 23.6371 16.0433 25.4397C15.7723 25.6214 15.6283 25.6969 15.6117 25.6661C15.5739 25.5964 15.3193 24.4605 15.2509 24.056C14.9424 22.2321 14.9168 20.3095 15.1761 18.464C15.3149 17.477 15.6988 15.8719 15.81 15.8132C16.1702 15.6225 18.3199 15.2324 19.5475 15.1346C20.1197 15.089 22.2843 15.1451 22.9163 15.2218ZM45.9946 15.3033C47.3717 15.4614 49.3382 15.8873 49.4205 16.0452C49.481 16.1609 49.77 17.3996 49.865 17.9493C50.2462 20.1554 50.1874 22.8884 49.7139 24.9765C49.4956 25.9391 49.5525 25.8636 49.2274 25.6226C46.8739 23.8777 43.4075 23.5527 40.622 24.8157C40.4783 24.8809 40.3605 24.9284 40.3605 24.9211C40.3605 24.914 40.4228 24.771 40.4985 24.6033C41.7135 21.9184 41.4579 18.6836 39.8383 16.2463C39.6764 16.0023 39.5524 15.7941 39.5629 15.7835C39.6765 15.6691 41.6516 15.3552 42.8195 15.2659C43.3586 15.2246 45.5332 15.2502 45.9946 15.3033ZM37.0752 16.9334C38.6987 18.6551 39.1256 21.3246 38.1297 23.5265C37.8417 24.1632 37.1702 25.1174 37.0386 25.0775C36.9091 25.0383 36.0348 24.901 35.5203 24.8391C35.1805 24.7982 34.4087 24.7639 33.3133 24.7411C30.8769 24.6904 29.1221 24.5122 28.905 24.2938C28.8783 24.2668 29.4655 23.2386 29.8131 22.7039C31.4257 20.2218 33.554 18.3124 36.152 17.0162C36.8861 16.6499 36.8141 16.6564 37.0752 16.9334ZM28.9901 17.1204C29.2847 17.2824 29.7072 17.5294 29.9288 17.6697L30.3321 17.9245L29.871 18.4184C28.7746 19.5931 27.7338 20.9924 27.1178 22.1203C26.9055 22.509 26.907 22.5088 26.8269 22.159C26.4383 20.4605 27.0565 18.2402 28.2712 16.9723C28.4441 16.7916 28.3608 16.7744 28.9901 17.1204ZM12.6738 17.7034C12.1539 20.8287 12.4026 24.2371 13.3702 27.2471C13.6042 27.9747 13.6022 27.8758 13.3906 28.2264C11.7693 30.9163 11.7849 34.5077 13.4299 37.1661L13.6008 37.4418L13.4642 37.8094C12.3569 40.789 12.0018 44.6303 12.5318 47.897C12.5814 48.2027 12.6079 48.4527 12.5911 48.4527C12.4386 48.4527 10.7223 47.346 10.0218 46.7961C0.00313947 38.9309 1.21092 23.4379 12.3238 17.2696C12.5677 17.1342 12.7709 17.0274 12.7757 17.032C12.7802 17.0368 12.7344 17.3389 12.6738 17.7034ZM52.954 17.5507C64.0951 23.9586 64.8566 39.9027 54.3781 47.3678C53.7439 47.8194 52.2657 48.7173 52.2244 48.6758C52.2199 48.6709 52.2657 48.3688 52.3261 48.0043C52.8563 44.8119 52.5968 41.1356 51.6241 38.0584L51.4264 37.4326L51.5894 37.1808C53.2435 34.6231 53.2506 30.9964 51.6068 28.1877L51.5347 28.0647L51.7569 27.3687C52.7334 24.3114 52.9812 20.8119 52.4449 17.6547C52.4074 17.4349 52.3912 17.255 52.4084 17.255C52.4257 17.255 52.6713 17.388 52.954 17.5507ZM21.658 26.71C22.635 26.8595 23.5404 27.2479 24.3539 27.8662C24.8303 28.2284 24.8007 28.1536 24.6976 28.7397C24.5224 29.7369 24.4808 30.2776 24.4446 32.0349C24.3982 34.2833 24.3378 35.1422 24.2285 35.0999C24.1994 35.0887 24.023 35.0328 23.8364 34.9757C22.0463 34.4285 20.2618 33.4685 19.2416 32.5032C18.6202 31.9159 17.5211 30.2744 16.8488 28.93L16.5691 28.371L16.6837 28.2498C17.7761 27.0945 19.8909 26.4398 21.658 26.71ZM45.4371 26.7657C46.1946 26.9206 46.9371 27.2305 47.5759 27.6584C47.9621 27.9169 48.5309 28.4047 48.5309 28.4772C48.5309 28.5918 48.023 29.5416 47.5717 30.2704L47.3241 30.6703L46.8144 30.1858C45.5448 28.9793 44.1111 27.9296 42.6549 27.14C42.2981 26.9468 42.2957 26.952 42.7957 26.8316C43.6099 26.6355 44.6706 26.6092 45.4371 26.7657ZM28.3289 26.8497C29.4455 27.1842 30.545 27.2966 33.2744 27.3557C34.9917 27.3928 35.4934 27.4379 36.5756 27.6526C37.1747 27.7714 37.1563 27.7523 36.9701 28.0611C36.1656 29.3949 35.8508 30.6911 35.7919 32.9124C35.7469 34.6105 35.6388 36.5393 35.5865 36.5812C35.5821 36.5848 35.3519 36.5303 35.075 36.46C34.2425 36.2486 33.8747 36.2079 32.4419 36.1693C30.045 36.1046 28.7116 35.9998 27.2187 35.7584C26.7922 35.6893 26.8295 35.7674 26.8995 35.0895C26.9843 34.2675 27.0018 33.8961 27.0406 32.074C27.0775 30.3481 27.1247 29.8138 27.3315 28.7855C27.5042 27.9273 27.8344 26.7313 27.8991 26.7313C27.9179 26.7313 28.1114 26.7847 28.3289 26.8497ZM40.1194 28.7942C43.6379 30.3537 46.5069 33.0729 48.1782 36.4331L48.4486 36.9766L48.3059 37.1115C46.8334 38.5034 44.6214 39.0411 42.8134 38.4467C40.7685 37.7746 38.6416 35.6651 38.3885 34.0585C38.3246 33.6527 38.3992 31.8402 38.5011 31.3182C38.6928 30.3381 39.0681 29.4917 39.6139 28.8078C39.7723 28.6096 39.7067 28.6114 40.1194 28.7942ZM15.8619 32.3996L16.1137 32.7658L15.8847 33.0925C15.7588 33.2724 15.5223 33.6344 15.3589 33.8971C15.0045 34.4674 15.0243 34.4616 14.9226 34.0253C14.7154 33.1362 14.7429 31.6906 14.9791 31.0638C14.9911 31.0319 15.1256 31.2204 15.305 31.5215C15.4729 31.803 15.7235 32.1984 15.8619 32.3996ZM50.1727 31.7082C50.2821 32.404 50.2494 33.3848 50.0953 34.0335C50.0202 34.3494 50.0133 34.3512 49.8721 34.0914C49.8111 33.9792 49.5977 33.6382 49.3981 33.3334L49.0351 32.7798L49.3961 32.2417C49.5945 31.9456 49.8235 31.5918 49.9046 31.4552C50.0801 31.1603 50.0878 31.1677 50.1727 31.7082ZM18.127 34.9843C19.2112 35.8736 21.213 36.8909 22.955 37.4376C23.5137 37.6129 23.4724 37.5797 23.3429 37.7505C22.2248 39.227 18.2919 38.8382 16.7077 37.0944L16.6173 36.9949L16.8516 36.5329C17.1532 35.9387 17.8322 34.8038 17.8863 34.8038C17.8976 34.8038 18.0061 34.8849 18.127 34.9843ZM26.6699 38.3197C27.045 38.3744 27.045 38.3742 26.8818 38.5303C23.8689 41.4131 23.2714 45.8603 25.4312 49.3254C25.7428 49.8252 25.7896 49.7624 24.953 49.9686C22.0386 50.6868 19.0473 50.6529 16.1534 49.8689C15.5198 49.6974 15.6002 49.7949 15.3857 48.9401C14.686 46.1528 14.7164 42.9104 15.4688 40.1073C15.6188 39.5483 15.5907 39.5702 15.8888 39.7799C17.2864 40.7634 18.9626 41.2777 20.7761 41.2791C23.2593 41.2813 24.9251 40.3709 26.0135 38.4166C26.1088 38.2454 26.1295 38.2295 26.2286 38.2494C26.2888 38.2616 26.4873 38.2931 26.6699 38.3197ZM33.2681 38.8027C33.8472 38.8344 35.1176 39.1249 35.1852 39.241C35.2572 39.3645 34.5958 41.7282 34.2227 42.6812C33.0956 45.5596 31.8579 46.8961 28.8367 48.4968C28.2214 48.8227 28.2883 48.8357 27.9005 48.3156C26.7785 46.8107 26.4155 44.8791 26.9467 43.2405C27.6059 41.2065 29.6953 39.0533 31.2699 38.7853C31.4657 38.752 32.5109 38.761 33.2681 38.8027ZM49.4185 39.7856C50.2044 42.7549 50.1956 46.3191 49.3955 49.3155C49.2252 49.9534 49.31 49.881 48.4923 50.0854C45.7914 50.7606 42.7668 50.768 40.0895 50.1056C39.7808 50.0293 39.5221 49.9608 39.5149 49.9536C39.5076 49.9464 39.5715 49.8472 39.6565 49.7328C41.5754 47.1589 41.7715 43.2447 40.1276 40.3327C39.897 39.9242 39.8974 39.9192 40.1423 40.073C42.8318 41.7587 46.4123 41.6801 48.9956 39.8781C49.3931 39.601 49.3709 39.6057 49.4185 39.7856ZM37.7576 41.4431C38.9063 43.3689 38.9582 45.7329 37.894 47.6469C37.5939 48.1864 37.0005 48.9581 36.8847 48.9592C36.7626 48.9605 35.6882 48.3822 34.9099 47.8967C34.3743 47.5624 34.395 47.6016 34.6132 47.3316C35.7225 45.9601 36.6728 43.8921 37.3998 41.2676C37.4804 40.9765 37.4788 40.9754 37.7576 41.4431ZM32.8486 49.6633C33.0508 49.8055 33.4255 50.0509 33.6811 50.2086C34.2328 50.5494 34.1832 50.5143 34.1551 50.5428C33.9295 50.7698 31.9931 50.7572 31.1122 50.523C30.7744 50.4332 30.7631 50.425 30.8801 50.3533C31.4778 49.9873 31.909 49.7116 32.1323 49.5523C32.2811 49.446 32.4208 49.3692 32.4419 49.3819C32.4631 49.3946 32.6462 49.5211 32.8486 49.6633ZM28.3374 52.1541C30.9586 53.7367 34.3771 53.734 37.0413 52.1475L37.3038 51.9912L37.9026 52.1919C40.9609 53.2162 44.4341 53.4845 47.5919 52.9404C47.8102 52.9027 47.9889 52.8845 47.9889 52.8999C47.9889 53.0055 47.2256 54.2676 46.7807 54.8975C39.962 64.554 25.9584 64.9164 18.6363 55.6263C17.9636 54.773 16.7307 52.8058 16.8203 52.7292C16.8294 52.7214 17.1224 52.7637 17.4713 52.823C20.6092 53.3571 24.0906 53.0824 27.0789 52.0649C27.6967 51.8546 27.8059 51.8279 27.8727 51.8706C27.9154 51.898 28.1245 52.0255 28.3374 52.1541ZM-12.1078 -7.07919H-8.14266V-3.08589H-12.1078V-7.07919ZM73.1429 -7.07919H77.1079V-3.08589H73.1429V-7.07919Z" fill="#fff"/>
</g>
<defs>
<clipPath id="clip0_31_173">
<rect width="65" height="65" fill="white"/>
</clipPath>
</defs>
</svg>
