<svg width="200" height="175" viewBox="0 0 200 175" fill="none" xmlns="http://www.w3.org/2000/svg">
<circle cx="130" cy="110" r="50" fill="#F9E45B" fill-opacity="0.8"/>
<path d="M132.796 42.5532C128.495 29.7872 119.892 21.2766 106.989 15.9574V0H96.2366V14.8936H91.9355C80.1075 14.8936 70.4301 19.1489 61.828 27.6596L57.5269 31.9149L42.4731 26.5957C39.2473 25.5319 36.0215 24.4681 31.7204 24.4681C25.2688 24.4681 18.8172 26.5957 13.4409 30.8511C6.98925 35.1064 3.76344 40.4255 1.6129 45.7447C-0.537634 53.1915 -0.537634 59.5745 1.6129 67.0213C4.83871 74.4681 8.06452 79.7872 13.4409 82.9787C9.13979 98.9362 12.3656 112.766 24.1936 124.468C32.7957 132.979 42.4731 137.234 54.3011 137.234C59.6774 137.234 62.9032 137.234 66.129 136.17C72.5806 144.681 81.1828 150 91.9355 150C95.1613 150 99.4624 150 102.688 148.936C109.14 146.809 113.441 142.553 117.742 137.234C122.043 130.851 124.194 125.532 124.194 119.149C124.194 114.894 124.194 111.702 123.118 108.511L117.742 91.4894L124.194 87.234C132.796 78.7234 137.097 67.0213 136.022 54.2553H150V42.5532H132.796ZM28.4946 67.0213C22.043 63.8298 19.8925 59.5745 22.043 53.1915C24.1936 46.8085 28.4946 44.6808 34.9462 46.8085L69.3548 59.5745C52.1505 68.0851 39.2473 70.2128 28.4946 67.0213V67.0213ZM96.2366 126.596C89.7849 128.723 85.4839 126.596 82.2581 120.213C79.0323 109.574 81.1828 96.8085 89.7849 79.7872L102.688 112.766C104.839 120.213 102.688 124.468 96.2366 126.596V126.596ZM109.14 70.2128L102.688 53.1915V52.1277L99.4624 48.9362H98.3871L81.1828 42.5532C85.4839 39.3617 89.7849 37.234 95.1613 37.234C100.538 37.234 105.914 39.3617 110.215 43.617C114.516 47.8723 116.667 52.1277 116.667 57.4468C114.516 60.6383 112.366 65.9575 109.14 70.2128V70.2128Z" fill="#404040"/>
</svg>
