<svg width="200" height="175" viewBox="0 0 200 175" fill="none" xmlns="http://www.w3.org/2000/svg">
<circle cx="130" cy="110" r="50" fill="#E64E53" fill-opacity="0.8"/>
<path d="M0 8.275C0.0137253 6.08648 0.801752 3.99181 2.19385 2.44348C3.58594 0.895149 5.47035 0.0174554 7.44 0H142.56C146.67 0 150 3.70833 150 8.275V141.725C149.986 143.914 149.198 146.008 147.806 147.557C146.414 149.105 144.53 149.983 142.56 150H7.44C5.4661 149.998 3.57373 149.125 2.17867 147.573C0.783615 146.022 -1.00091e-06 143.918 0 141.725V8.275ZM15 16.6667V133.333H135V16.6667H15ZM64.665 45.125L101.257 72.225C101.669 72.5293 102.006 72.9418 102.24 73.4259C102.473 73.9101 102.595 74.4508 102.595 75C102.595 75.5492 102.473 76.0899 102.24 76.5741C102.006 77.0582 101.669 77.4707 101.257 77.775L64.6575 104.875C64.2062 105.207 63.6824 105.398 63.1415 105.426C62.6007 105.455 62.063 105.32 61.5856 105.036C61.1081 104.753 60.7086 104.331 60.4294 103.815C60.1503 103.3 60.0019 102.71 60 102.108V47.8917C60.001 47.2888 60.1492 46.6974 60.4287 46.1807C60.7082 45.6639 61.1086 45.2411 61.5873 44.9572C62.066 44.6733 62.6051 44.539 63.147 44.5685C63.689 44.5981 64.2136 44.7904 64.665 45.125Z" fill="#404040"/>
</svg>
