<svg width="200" height="175" viewBox="0 0 200 175" fill="none" xmlns="http://www.w3.org/2000/svg">
<circle cx="130" cy="110" r="50" fill="#6DB784" fill-opacity="0.8"/>
<path d="M75 0C55.1088 0 36.0322 7.90176 21.967 21.967C7.90176 36.0322 0 55.1088 0 75C0 94.8912 7.90176 113.968 21.967 128.033C36.0322 142.098 55.1088 150 75 150C94.8912 150 113.968 142.098 128.033 128.033C142.098 113.968 150 94.8912 150 75C150 55.1088 142.098 36.0322 128.033 21.967C113.968 7.90176 94.8912 0 75 0V0ZM47.7375 15.2813L70.3312 28.4625V44.4L44.3719 62.7L29.7469 57.3844L23.8781 33.8344C30.2855 25.884 38.4537 19.5324 47.7375 15.2813V15.2813ZM9.69375 81.4875L26.8219 66.3L41.3156 71.5594L51.1125 102.403L44.3906 112.463H21.1125C14.7141 103.287 10.782 92.6206 9.69375 81.4875V81.4875ZM59.7469 138.844L52.1063 117.788L58.7625 107.822H91.2656L97.9313 117.788L90.2906 138.834C80.2505 141.231 69.787 141.231 59.7469 138.834V138.844ZM128.888 112.463H105.656L98.9063 102.384L108.516 71.5687L123.206 66.2812L140.306 81.4875C139.218 92.6206 135.286 103.287 128.888 112.463V112.463ZM126.169 33.9L120.3 57.3656L105.45 62.7094L79.6969 44.4094V28.4719L102.281 15.2813C111.581 19.5445 119.76 25.9161 126.169 33.8906V33.9Z" fill="#404040"/>
</svg>
