<svg width="88" height="50" viewBox="0 0 88 67" fill="none" xmlns="http://www.w3.org/2000/svg">
<path d="M3.19922 1.78125V16H0.269531V1.78125H3.19922ZM11.7148 1.78125L6.08008 8.80273L2.82812 12.2988L2.30078 9.52539L4.49805 6.51758L8.12109 1.78125H11.7148ZM8.38477 16L4.19531 9.42773L6.36328 7.61133L11.8516 16H8.38477ZM17.418 16.1953C16.5977 16.1953 15.862 16.0651 15.2109 15.8047C14.5599 15.5378 14.0065 15.1699 13.5508 14.7012C13.1016 14.2324 12.7565 13.6888 12.5156 13.0703C12.2747 12.4453 12.1543 11.7812 12.1543 11.0781V10.6875C12.1543 9.88672 12.2682 9.1543 12.4961 8.49023C12.724 7.82617 13.0495 7.25 13.4727 6.76172C13.9023 6.27344 14.4232 5.89909 15.0352 5.63867C15.6471 5.37174 16.3372 5.23828 17.1055 5.23828C17.8542 5.23828 18.5182 5.36198 19.0977 5.60938C19.6771 5.85677 20.1621 6.20833 20.5527 6.66406C20.9499 7.11979 21.2493 7.66667 21.4512 8.30469C21.653 8.9362 21.7539 9.63932 21.7539 10.4141V11.5859H13.3555V9.71094H18.9902V9.49609C18.9902 9.10547 18.9186 8.75716 18.7754 8.45117C18.6387 8.13867 18.4303 7.89128 18.1504 7.70898C17.8704 7.52669 17.5124 7.43555 17.0762 7.43555C16.7051 7.43555 16.3861 7.51693 16.1191 7.67969C15.8522 7.84245 15.6341 8.07031 15.4648 8.36328C15.3021 8.65625 15.1784 9.0013 15.0938 9.39844C15.0156 9.78906 14.9766 10.2188 14.9766 10.6875V11.0781C14.9766 11.5013 15.0352 11.8919 15.1523 12.25C15.276 12.6081 15.4486 12.9173 15.6699 13.1777C15.8978 13.4382 16.1712 13.64 16.4902 13.7832C16.8158 13.9264 17.1836 13.998 17.5938 13.998C18.1016 13.998 18.5736 13.9004 19.0098 13.7051C19.4525 13.5033 19.8333 13.2005 20.1523 12.7969L21.5195 14.2812C21.2982 14.6003 20.9954 14.9062 20.6113 15.1992C20.2337 15.4922 19.778 15.7331 19.2441 15.9219C18.7103 16.1042 18.1016 16.1953 17.418 16.1953ZM29.5957 13.6953V1H32.4277V16H29.8789L29.5957 13.6953ZM22.916 10.8438V10.6387C22.916 9.83138 23.0072 9.09896 23.1895 8.44141C23.3717 7.77734 23.6387 7.20768 23.9902 6.73242C24.3418 6.25716 24.7747 5.88932 25.2891 5.62891C25.8034 5.36849 26.3893 5.23828 27.0469 5.23828C27.6654 5.23828 28.2057 5.36849 28.668 5.62891C29.1367 5.88932 29.5339 6.26042 29.8594 6.74219C30.1914 7.21745 30.4583 7.7806 30.6602 8.43164C30.862 9.07617 31.0085 9.78255 31.0996 10.5508V11C31.0085 11.7357 30.862 12.4193 30.6602 13.0508C30.4583 13.6823 30.1914 14.2357 29.8594 14.7109C29.5339 15.1797 29.1367 15.5443 28.668 15.8047C28.1992 16.0651 27.6523 16.1953 27.0273 16.1953C26.3698 16.1953 25.7839 16.0618 25.2695 15.7949C24.7617 15.528 24.332 15.1536 23.9805 14.6719C23.6354 14.1901 23.3717 13.6237 23.1895 12.9727C23.0072 12.3216 22.916 11.612 22.916 10.8438ZM25.7285 10.6387V10.8438C25.7285 11.2799 25.7611 11.6868 25.8262 12.0645C25.8978 12.4421 26.0117 12.7773 26.168 13.0703C26.3307 13.3568 26.5391 13.5814 26.793 13.7441C27.0534 13.9004 27.3691 13.9785 27.7402 13.9785C28.222 13.9785 28.6191 13.8711 28.9316 13.6562C29.2441 13.4349 29.4818 13.1322 29.6445 12.748C29.8138 12.3639 29.9115 11.9212 29.9375 11.4199V10.1406C29.918 9.73047 29.8594 9.36263 29.7617 9.03711C29.6706 8.70508 29.5339 8.42188 29.3516 8.1875C29.1758 7.95312 28.9544 7.77083 28.6875 7.64062C28.4271 7.51042 28.1178 7.44531 27.7598 7.44531C27.3952 7.44531 27.0827 7.52995 26.8223 7.69922C26.5618 7.86198 26.3503 8.08659 26.1875 8.37305C26.0312 8.65951 25.9141 8.99805 25.8359 9.38867C25.7643 9.77279 25.7285 10.1895 25.7285 10.6387ZM35.9922 0.990234V1.69336C35.9922 2.29883 35.8587 2.91732 35.5918 3.54883C35.3249 4.18034 34.9928 4.69792 34.5957 5.10156L33.209 4.33984C33.4303 3.98828 33.6061 3.62044 33.7363 3.23633C33.873 2.8457 33.9414 2.37695 33.9414 1.83008V0.990234H35.9922ZM2.90625 30.6211V39H0.0839844V28.4336H2.73047L2.90625 30.6211ZM2.51562 33.3457H1.73438C1.73438 32.61 1.82227 31.9329 1.99805 31.3145C2.18034 30.6895 2.44401 30.1491 2.78906 29.6934C3.14062 29.2311 3.57357 28.873 4.08789 28.6191C4.60221 28.3652 5.19792 28.2383 5.875 28.2383C6.34375 28.2383 6.77344 28.3099 7.16406 28.4531C7.55469 28.5898 7.88997 28.8079 8.16992 29.1074C8.45638 29.4004 8.67773 29.7845 8.83398 30.2598C8.99023 30.7285 9.06836 31.2917 9.06836 31.9492V39H6.25586V32.2617C6.25586 31.7799 6.19076 31.4089 6.06055 31.1484C5.93034 30.888 5.74479 30.7057 5.50391 30.6016C5.26953 30.4974 4.98633 30.4453 4.6543 30.4453C4.28971 30.4453 3.9707 30.5202 3.69727 30.6699C3.43034 30.8197 3.20898 31.028 3.0332 31.2949C2.85742 31.5553 2.72721 31.8613 2.64258 32.2129C2.55794 32.5645 2.51562 32.9421 2.51562 33.3457ZM8.80469 33.0234L7.79883 33.1504C7.79883 32.4603 7.88346 31.819 8.05273 31.2266C8.22852 30.6341 8.48568 30.1133 8.82422 29.6641C9.16927 29.2148 9.5957 28.8665 10.1035 28.6191C10.6113 28.3652 11.1973 28.2383 11.8613 28.2383C12.3691 28.2383 12.8314 28.3132 13.248 28.4629C13.6647 28.6061 14.0195 28.8372 14.3125 29.1562C14.612 29.4688 14.8398 29.8789 14.9961 30.3867C15.1589 30.8945 15.2402 31.5163 15.2402 32.252V39H12.418V32.252C12.418 31.7637 12.3529 31.3926 12.2227 31.1387C12.099 30.8783 11.9167 30.6992 11.6758 30.6016C11.4414 30.4974 11.1615 30.4453 10.8359 30.4453C10.4974 30.4453 10.2012 30.5137 9.94727 30.6504C9.69336 30.7806 9.48177 30.9629 9.3125 31.1973C9.14323 31.4316 9.01628 31.7051 8.93164 32.0176C8.84701 32.3236 8.80469 32.6589 8.80469 33.0234ZM16.9688 33.8242V33.6191C16.9688 32.8444 17.0794 32.1315 17.3008 31.4805C17.5221 30.8229 17.8444 30.2533 18.2676 29.7715C18.6908 29.2897 19.2116 28.9154 19.8301 28.6484C20.4486 28.375 21.1582 28.2383 21.959 28.2383C22.7598 28.2383 23.4727 28.375 24.0977 28.6484C24.7227 28.9154 25.2467 29.2897 25.6699 29.7715C26.0996 30.2533 26.4251 30.8229 26.6465 31.4805C26.8678 32.1315 26.9785 32.8444 26.9785 33.6191V33.8242C26.9785 34.5924 26.8678 35.3053 26.6465 35.9629C26.4251 36.6139 26.0996 37.1836 25.6699 37.6719C25.2467 38.1536 24.7259 38.528 24.1074 38.7949C23.4889 39.0618 22.7793 39.1953 21.9785 39.1953C21.1777 39.1953 20.4648 39.0618 19.8398 38.7949C19.2214 38.528 18.6973 38.1536 18.2676 37.6719C17.8444 37.1836 17.5221 36.6139 17.3008 35.9629C17.0794 35.3053 16.9688 34.5924 16.9688 33.8242ZM19.7812 33.6191V33.8242C19.7812 34.2669 19.8203 34.6803 19.8984 35.0645C19.9766 35.4486 20.1003 35.7871 20.2695 36.0801C20.4453 36.3665 20.6732 36.5911 20.9531 36.7539C21.2331 36.9167 21.5749 36.998 21.9785 36.998C22.3691 36.998 22.7044 36.9167 22.9844 36.7539C23.2643 36.5911 23.4889 36.3665 23.6582 36.0801C23.8275 35.7871 23.9512 35.4486 24.0293 35.0645C24.1139 34.6803 24.1562 34.2669 24.1562 33.8242V33.6191C24.1562 33.1895 24.1139 32.7858 24.0293 32.4082C23.9512 32.0241 23.8242 31.6855 23.6484 31.3926C23.4792 31.0931 23.2546 30.8587 22.9746 30.6895C22.6947 30.5202 22.3561 30.4355 21.959 30.4355C21.5618 30.4355 21.2233 30.5202 20.9434 30.6895C20.6699 30.8587 20.4453 31.0931 20.2695 31.3926C20.1003 31.6855 19.9766 32.0241 19.8984 32.4082C19.8203 32.7858 19.7812 33.1895 19.7812 33.6191ZM22.7598 24L25.709 26.7148V26.832H23.4727L21.9395 25.4062L20.4258 26.832H18.2285V26.6855L21.1289 24H22.7598ZM36.959 36.8027V39H28.9316V36.8027H36.959ZM36.8027 30.0547L30.0645 39H28.1797V37.3301L34.8887 28.4336H36.8027V30.0547ZM35.8066 28.4336V30.6406H28.3359V28.4336H35.8066ZM31.1094 24L32.5547 25.416L34 24H36.4023V24.0977L33.4531 26.832H31.666L28.707 24.0879V24H31.1094ZM43.4336 39.1953C42.6133 39.1953 41.8776 39.0651 41.2266 38.8047C40.5755 38.5378 40.0221 38.1699 39.5664 37.7012C39.1172 37.2324 38.7721 36.6888 38.5312 36.0703C38.2904 35.4453 38.1699 34.7812 38.1699 34.0781V33.6875C38.1699 32.8867 38.2839 32.1543 38.5117 31.4902C38.7396 30.8262 39.0651 30.25 39.4883 29.7617C39.918 29.2734 40.4388 28.8991 41.0508 28.6387C41.6628 28.3717 42.3529 28.2383 43.1211 28.2383C43.8698 28.2383 44.5339 28.362 45.1133 28.6094C45.6927 28.8568 46.1777 29.2083 46.5684 29.6641C46.9655 30.1198 47.265 30.6667 47.4668 31.3047C47.6686 31.9362 47.7695 32.6393 47.7695 33.4141V34.5859H39.3711V32.7109H45.0059V32.4961C45.0059 32.1055 44.9342 31.7572 44.791 31.4512C44.6543 31.1387 44.446 30.8913 44.166 30.709C43.8861 30.5267 43.528 30.4355 43.0918 30.4355C42.7207 30.4355 42.4017 30.5169 42.1348 30.6797C41.8678 30.8424 41.6497 31.0703 41.4805 31.3633C41.3177 31.6562 41.194 32.0013 41.1094 32.3984C41.0312 32.7891 40.9922 33.2188 40.9922 33.6875V34.0781C40.9922 34.5013 41.0508 34.8919 41.168 35.25C41.2917 35.6081 41.4642 35.9173 41.6855 36.1777C41.9134 36.4382 42.1868 36.64 42.5059 36.7832C42.8314 36.9264 43.1992 36.998 43.6094 36.998C44.1172 36.998 44.5892 36.9004 45.0254 36.7051C45.4681 36.5033 45.849 36.2005 46.168 35.7969L47.5352 37.2812C47.3138 37.6003 47.0111 37.9062 46.627 38.1992C46.2493 38.4922 45.7936 38.7331 45.2598 38.9219C44.7259 39.1042 44.1172 39.1953 43.4336 39.1953ZM52.1836 30.6211V39H49.3613V28.4336H52.0078L52.1836 30.6211ZM51.793 33.3457H51.0117C51.0117 32.61 51.0996 31.9329 51.2754 31.3145C51.4577 30.6895 51.7214 30.1491 52.0664 29.6934C52.418 29.2311 52.8509 28.873 53.3652 28.6191C53.8796 28.3652 54.4753 28.2383 55.1523 28.2383C55.6211 28.2383 56.0508 28.3099 56.4414 28.4531C56.832 28.5898 57.1673 28.8079 57.4473 29.1074C57.7337 29.4004 57.9551 29.7845 58.1113 30.2598C58.2676 30.7285 58.3457 31.2917 58.3457 31.9492V39H55.5332V32.2617C55.5332 31.7799 55.4681 31.4089 55.3379 31.1484C55.2077 30.888 55.0221 30.7057 54.7812 30.6016C54.5469 30.4974 54.2637 30.4453 53.9316 30.4453C53.5671 30.4453 53.248 30.5202 52.9746 30.6699C52.7077 30.8197 52.4863 31.028 52.3105 31.2949C52.1348 31.5553 52.0046 31.8613 51.9199 32.2129C51.8353 32.5645 51.793 32.9421 51.793 33.3457ZM58.082 33.0234L57.0762 33.1504C57.0762 32.4603 57.1608 31.819 57.3301 31.2266C57.5059 30.6341 57.763 30.1133 58.1016 29.6641C58.4466 29.2148 58.873 28.8665 59.3809 28.6191C59.8887 28.3652 60.4746 28.2383 61.1387 28.2383C61.6465 28.2383 62.1087 28.3132 62.5254 28.4629C62.9421 28.6061 63.2969 28.8372 63.5898 29.1562C63.8893 29.4688 64.1172 29.8789 64.2734 30.3867C64.4362 30.8945 64.5176 31.5163 64.5176 32.252V39H61.6953V32.252C61.6953 31.7637 61.6302 31.3926 61.5 31.1387C61.3763 30.8783 61.194 30.6992 60.9531 30.6016C60.7188 30.4974 60.4388 30.4453 60.1133 30.4453C59.7747 30.4453 59.4785 30.5137 59.2246 30.6504C58.9707 30.7806 58.7591 30.9629 58.5898 31.1973C58.4206 31.4316 58.2936 31.7051 58.209 32.0176C58.1243 32.3236 58.082 32.6589 58.082 33.0234ZM2.90625 53.4648V66.0625H0.09375V51.4336H2.70117L2.90625 53.4648ZM9.5957 56.5996V56.8047C9.5957 57.5729 9.50456 58.2858 9.32227 58.9434C9.14648 59.6009 8.88607 60.1738 8.54102 60.6621C8.19596 61.1439 7.76628 61.5215 7.25195 61.7949C6.74414 62.0618 6.1582 62.1953 5.49414 62.1953C4.84961 62.1953 4.28971 62.0651 3.81445 61.8047C3.33919 61.5443 2.9388 61.1797 2.61328 60.7109C2.29427 60.2357 2.03711 59.6855 1.8418 59.0605C1.64648 58.4355 1.49674 57.765 1.39258 57.0488V56.5117C1.49674 55.7435 1.64648 55.0404 1.8418 54.4023C2.03711 53.7578 2.29427 53.2012 2.61328 52.7324C2.9388 52.2572 3.33594 51.8893 3.80469 51.6289C4.27995 51.3685 4.83659 51.2383 5.47461 51.2383C6.14518 51.2383 6.73438 51.3652 7.24219 51.6191C7.75651 51.873 8.1862 52.2376 8.53125 52.7129C8.88281 53.1882 9.14648 53.7546 9.32227 54.4121C9.50456 55.0697 9.5957 55.7988 9.5957 56.5996ZM6.77344 56.8047V56.5996C6.77344 56.1504 6.73438 55.737 6.65625 55.3594C6.58464 54.9753 6.46745 54.64 6.30469 54.3535C6.14844 54.0671 5.9401 53.8457 5.67969 53.6895C5.42578 53.5267 5.11654 53.4453 4.75195 53.4453C4.36784 53.4453 4.03906 53.5072 3.76562 53.6309C3.4987 53.7546 3.2806 53.9336 3.11133 54.168C2.94206 54.4023 2.8151 54.6823 2.73047 55.0078C2.64583 55.3333 2.59375 55.7012 2.57422 56.1113V57.4688C2.60677 57.9505 2.69792 58.3835 2.84766 58.7676C2.9974 59.1452 3.22852 59.4447 3.54102 59.666C3.85352 59.8874 4.26367 59.998 4.77148 59.998C5.14258 59.998 5.45508 59.9167 5.70898 59.7539C5.96289 59.5846 6.16797 59.3535 6.32422 59.0605C6.48698 58.7676 6.60091 58.429 6.66602 58.0449C6.73763 57.6608 6.77344 57.2474 6.77344 56.8047ZM10.8945 56.8242V56.6191C10.8945 55.8444 11.0052 55.1315 11.2266 54.4805C11.4479 53.8229 11.7702 53.2533 12.1934 52.7715C12.6165 52.2897 13.1374 51.9154 13.7559 51.6484C14.3743 51.375 15.084 51.2383 15.8848 51.2383C16.6855 51.2383 17.3984 51.375 18.0234 51.6484C18.6484 51.9154 19.1725 52.2897 19.5957 52.7715C20.0254 53.2533 20.3509 53.8229 20.5723 54.4805C20.7936 55.1315 20.9043 55.8444 20.9043 56.6191V56.8242C20.9043 57.5924 20.7936 58.3053 20.5723 58.9629C20.3509 59.6139 20.0254 60.1836 19.5957 60.6719C19.1725 61.1536 18.6517 61.528 18.0332 61.7949C17.4147 62.0618 16.7051 62.1953 15.9043 62.1953C15.1035 62.1953 14.3906 62.0618 13.7656 61.7949C13.1471 61.528 12.623 61.1536 12.1934 60.6719C11.7702 60.1836 11.4479 59.6139 11.2266 58.9629C11.0052 58.3053 10.8945 57.5924 10.8945 56.8242ZM13.707 56.6191V56.8242C13.707 57.2669 13.7461 57.6803 13.8242 58.0645C13.9023 58.4486 14.026 58.7871 14.1953 59.0801C14.3711 59.3665 14.599 59.5911 14.8789 59.7539C15.1589 59.9167 15.5007 59.998 15.9043 59.998C16.2949 59.998 16.6302 59.9167 16.9102 59.7539C17.1901 59.5911 17.4147 59.3665 17.584 59.0801C17.7533 58.7871 17.877 58.4486 17.9551 58.0645C18.0397 57.6803 18.082 57.2669 18.082 56.8242V56.6191C18.082 56.1895 18.0397 55.7858 17.9551 55.4082C17.877 55.0241 17.75 54.6855 17.5742 54.3926C17.4049 54.0931 17.1803 53.8587 16.9004 53.6895C16.6204 53.5202 16.2819 53.4355 15.8848 53.4355C15.4876 53.4355 15.1491 53.5202 14.8691 53.6895C14.5957 53.8587 14.3711 54.0931 14.1953 54.3926C14.026 54.6855 13.9023 55.0241 13.8242 55.4082C13.7461 55.7858 13.707 56.1895 13.707 56.6191ZM25.4453 53.6211V62H22.623V51.4336H25.2695L25.4453 53.6211ZM25.0547 56.3457H24.2734C24.2734 55.61 24.3613 54.9329 24.5371 54.3145C24.7194 53.6895 24.9831 53.1491 25.3281 52.6934C25.6797 52.2311 26.1126 51.873 26.627 51.6191C27.1413 51.3652 27.737 51.2383 28.4141 51.2383C28.8828 51.2383 29.3125 51.3099 29.7031 51.4531C30.0938 51.5898 30.429 51.8079 30.709 52.1074C30.9954 52.4004 31.2168 52.7845 31.373 53.2598C31.5293 53.7285 31.6074 54.2917 31.6074 54.9492V62H28.7949V55.2617C28.7949 54.7799 28.7298 54.4089 28.5996 54.1484C28.4694 53.888 28.2839 53.7057 28.043 53.6016C27.8086 53.4974 27.5254 53.4453 27.1934 53.4453C26.8288 53.4453 26.5098 53.5202 26.2363 53.6699C25.9694 53.8197 25.748 54.028 25.5723 54.2949C25.3965 54.5553 25.2663 54.8613 25.1816 55.2129C25.097 55.5645 25.0547 55.9421 25.0547 56.3457ZM31.3438 56.0234L30.3379 56.1504C30.3379 55.4603 30.4225 54.819 30.5918 54.2266C30.7676 53.6341 31.0247 53.1133 31.3633 52.6641C31.7083 52.2148 32.1348 51.8665 32.6426 51.6191C33.1504 51.3652 33.7363 51.2383 34.4004 51.2383C34.9082 51.2383 35.3704 51.3132 35.7871 51.4629C36.2038 51.6061 36.5586 51.8372 36.8516 52.1562C37.151 52.4688 37.3789 52.8789 37.5352 53.3867C37.6979 53.8945 37.7793 54.5163 37.7793 55.252V62H34.957V55.252C34.957 54.7637 34.8919 54.3926 34.7617 54.1387C34.638 53.8783 34.4557 53.6992 34.2148 53.6016C33.9805 53.4974 33.7005 53.4453 33.375 53.4453C33.0365 53.4453 32.7402 53.5137 32.4863 53.6504C32.2324 53.7806 32.0208 53.9629 31.8516 54.1973C31.6823 54.4316 31.5553 54.7051 31.4707 55.0176C31.3861 55.3236 31.3438 55.6589 31.3438 56.0234ZM39.5078 56.8242V56.6191C39.5078 55.8444 39.6185 55.1315 39.8398 54.4805C40.0612 53.8229 40.3835 53.2533 40.8066 52.7715C41.2298 52.2897 41.7507 51.9154 42.3691 51.6484C42.9876 51.375 43.6973 51.2383 44.498 51.2383C45.2988 51.2383 46.0117 51.375 46.6367 51.6484C47.2617 51.9154 47.7858 52.2897 48.209 52.7715C48.6387 53.2533 48.9642 53.8229 49.1855 54.4805C49.4069 55.1315 49.5176 55.8444 49.5176 56.6191V56.8242C49.5176 57.5924 49.4069 58.3053 49.1855 58.9629C48.9642 59.6139 48.6387 60.1836 48.209 60.6719C47.7858 61.1536 47.265 61.528 46.6465 61.7949C46.028 62.0618 45.3184 62.1953 44.5176 62.1953C43.7168 62.1953 43.0039 62.0618 42.3789 61.7949C41.7604 61.528 41.2363 61.1536 40.8066 60.6719C40.3835 60.1836 40.0612 59.6139 39.8398 58.9629C39.6185 58.3053 39.5078 57.5924 39.5078 56.8242ZM42.3203 56.6191V56.8242C42.3203 57.2669 42.3594 57.6803 42.4375 58.0645C42.5156 58.4486 42.6393 58.7871 42.8086 59.0801C42.9844 59.3665 43.2122 59.5911 43.4922 59.7539C43.7721 59.9167 44.1139 59.998 44.5176 59.998C44.9082 59.998 45.2435 59.9167 45.5234 59.7539C45.8034 59.5911 46.028 59.3665 46.1973 59.0801C46.3665 58.7871 46.4902 58.4486 46.5684 58.0645C46.653 57.6803 46.6953 57.2669 46.6953 56.8242V56.6191C46.6953 56.1895 46.653 55.7858 46.5684 55.4082C46.4902 55.0241 46.3633 54.6855 46.1875 54.3926C46.0182 54.0931 45.7936 53.8587 45.5137 53.6895C45.2337 53.5202 44.8952 53.4355 44.498 53.4355C44.1009 53.4355 43.7624 53.5202 43.4824 53.6895C43.209 53.8587 42.9844 54.0931 42.8086 54.3926C42.6393 54.6855 42.5156 55.0241 42.4375 55.4082C42.3594 55.7858 42.3203 56.1895 42.3203 56.6191ZM45.2988 47L48.248 49.7148V49.832H46.0117L44.4785 48.4062L42.9648 49.832H40.7676V49.6855L43.668 47H45.2988ZM59.498 59.8027V62H51.4707V59.8027H59.498ZM59.3418 53.0547L52.6035 62H50.7188V60.3301L57.4277 51.4336H59.3418V53.0547ZM58.3457 51.4336V53.6406H50.875V51.4336H58.3457ZM53.6484 47L55.0938 48.416L56.5391 47H58.9414V47.0977L55.9922 49.832H54.2051L51.2461 47.0879V47H53.6484ZM65.9727 62.1953C65.1523 62.1953 64.4167 62.0651 63.7656 61.8047C63.1146 61.5378 62.5612 61.1699 62.1055 60.7012C61.6562 60.2324 61.3112 59.6888 61.0703 59.0703C60.8294 58.4453 60.709 57.7812 60.709 57.0781V56.6875C60.709 55.8867 60.8229 55.1543 61.0508 54.4902C61.2786 53.8262 61.6042 53.25 62.0273 52.7617C62.457 52.2734 62.9779 51.8991 63.5898 51.6387C64.2018 51.3717 64.8919 51.2383 65.6602 51.2383C66.4089 51.2383 67.0729 51.362 67.6523 51.6094C68.2318 51.8568 68.7168 52.2083 69.1074 52.6641C69.5046 53.1198 69.804 53.6667 70.0059 54.3047C70.2077 54.9362 70.3086 55.6393 70.3086 56.4141V57.5859H61.9102V55.7109H67.5449V55.4961C67.5449 55.1055 67.4733 54.7572 67.3301 54.4512C67.1934 54.1387 66.985 53.8913 66.7051 53.709C66.4251 53.5267 66.0671 53.4355 65.6309 53.4355C65.2598 53.4355 64.9408 53.5169 64.6738 53.6797C64.4069 53.8424 64.1888 54.0703 64.0195 54.3633C63.8568 54.6562 63.7331 55.0013 63.6484 55.3984C63.5703 55.7891 63.5312 56.2188 63.5312 56.6875V57.0781C63.5312 57.5013 63.5898 57.8919 63.707 58.25C63.8307 58.6081 64.0033 58.9173 64.2246 59.1777C64.4525 59.4382 64.7259 59.64 65.0449 59.7832C65.3704 59.9264 65.7383 59.998 66.1484 59.998C66.6562 59.998 67.1283 59.9004 67.5645 59.7051C68.0072 59.5033 68.388 59.2005 68.707 58.7969L70.0742 60.2812C69.8529 60.6003 69.5501 60.9062 69.166 61.1992C68.7884 61.4922 68.3327 61.7331 67.7988 61.9219C67.265 62.1042 66.6562 62.1953 65.9727 62.1953ZM74.7227 53.6211V62H71.9004V51.4336H74.5469L74.7227 53.6211ZM74.332 56.3457H73.5508C73.5508 55.61 73.6387 54.9329 73.8145 54.3145C73.9967 53.6895 74.2604 53.1491 74.6055 52.6934C74.957 52.2311 75.39 51.873 75.9043 51.6191C76.4186 51.3652 77.0143 51.2383 77.6914 51.2383C78.1602 51.2383 78.5898 51.3099 78.9805 51.4531C79.3711 51.5898 79.7064 51.8079 79.9863 52.1074C80.2728 52.4004 80.4941 52.7845 80.6504 53.2598C80.8066 53.7285 80.8848 54.2917 80.8848 54.9492V62H78.0723V55.2617C78.0723 54.7799 78.0072 54.4089 77.877 54.1484C77.7467 53.888 77.5612 53.7057 77.3203 53.6016C77.0859 53.4974 76.8027 53.4453 76.4707 53.4453C76.1061 53.4453 75.7871 53.5202 75.5137 53.6699C75.2467 53.8197 75.0254 54.028 74.8496 54.2949C74.6738 54.5553 74.5436 54.8613 74.459 55.2129C74.3743 55.5645 74.332 55.9421 74.332 56.3457ZM80.6211 56.0234L79.6152 56.1504C79.6152 55.4603 79.6999 54.819 79.8691 54.2266C80.0449 53.6341 80.3021 53.1133 80.6406 52.6641C80.9857 52.2148 81.4121 51.8665 81.9199 51.6191C82.4277 51.3652 83.0137 51.2383 83.6777 51.2383C84.1855 51.2383 84.6478 51.3132 85.0645 51.4629C85.4811 51.6061 85.8359 51.8372 86.1289 52.1562C86.4284 52.4688 86.6562 52.8789 86.8125 53.3867C86.9753 53.8945 87.0566 54.5163 87.0566 55.252V62H84.2344V55.252C84.2344 54.7637 84.1693 54.3926 84.0391 54.1387C83.9154 53.8783 83.7331 53.6992 83.4922 53.6016C83.2578 53.4974 82.9779 53.4453 82.6523 53.4453C82.3138 53.4453 82.0176 53.5137 81.7637 53.6504C81.5098 53.7806 81.2982 53.9629 81.1289 54.1973C80.9596 54.4316 80.8327 54.7051 80.748 55.0176C80.6634 55.3236 80.6211 55.6589 80.6211 56.0234Z" fill="white"/>
</svg>
