<svg width="88" height="50" viewBox="0 0 88 67" fill="none" xmlns="http://www.w3.org/2000/svg">
<path d="M4.72266 10.2969L3.19922 11.9375V16H0.269531V1.78125H3.19922V8.22656L4.48828 6.45898L8.11133 1.78125H11.7148L6.66602 8.09961L11.8613 16H8.375L4.72266 10.2969ZM17.3887 16.1953C15.8392 16.1953 14.5762 15.7201 13.5996 14.7695C12.6296 13.819 12.1445 12.5527 12.1445 10.9707V10.6973C12.1445 9.63607 12.3496 8.6888 12.7598 7.85547C13.1699 7.01562 13.7493 6.37109 14.498 5.92188C15.2533 5.46615 16.1126 5.23828 17.0762 5.23828C18.5215 5.23828 19.6576 5.69401 20.4844 6.60547C21.3177 7.51693 21.7344 8.80924 21.7344 10.4824V11.6348H15.0059C15.097 12.3249 15.3704 12.8783 15.8262 13.2949C16.2884 13.7116 16.8711 13.9199 17.5742 13.9199C18.6615 13.9199 19.5111 13.526 20.123 12.7383L21.5098 14.291C21.0866 14.89 20.5137 15.3587 19.791 15.6973C19.0684 16.0293 18.2676 16.1953 17.3887 16.1953ZM17.0664 7.52344C16.5065 7.52344 16.0508 7.71224 15.6992 8.08984C15.3542 8.46745 15.1328 9.00781 15.0352 9.71094H18.9609V9.48633C18.9479 8.86133 18.7786 8.37956 18.4531 8.04102C18.1276 7.69596 17.6654 7.52344 17.0664 7.52344ZM22.9062 10.6387C22.9062 8.99154 23.2741 7.67969 24.0098 6.70312C24.752 5.72656 25.7643 5.23828 27.0469 5.23828C28.0755 5.23828 28.9251 5.6224 29.5957 6.39062V1H32.4277V16H29.8789L29.7422 14.877C29.0391 15.7559 28.1341 16.1953 27.0273 16.1953C25.7839 16.1953 24.7845 15.707 24.0293 14.7305C23.2806 13.7474 22.9062 12.3835 22.9062 10.6387ZM25.7285 10.8438C25.7285 11.8333 25.901 12.5918 26.2461 13.1191C26.5911 13.6465 27.0924 13.9102 27.75 13.9102C28.6224 13.9102 29.2376 13.5423 29.5957 12.8066V8.63672C29.2441 7.90104 28.6354 7.5332 27.7695 7.5332C26.4089 7.5332 25.7285 8.63672 25.7285 10.8438ZM34.5859 5.13086L33.1895 4.35938C33.6647 3.61068 33.9121 2.82292 33.9316 1.99609V0.990234H36.002V1.68359C36.002 2.28906 35.8652 2.91406 35.5918 3.55859C35.3249 4.20312 34.9896 4.72721 34.5859 5.13086ZM2.73047 28.4336L2.81836 29.6152C3.56706 28.6973 4.57943 28.2383 5.85547 28.2383C7.21615 28.2383 8.15039 28.7754 8.6582 29.8496C9.40039 28.7754 10.4583 28.2383 11.832 28.2383C12.9779 28.2383 13.8307 28.5736 14.3906 29.2441C14.9505 29.9082 15.2305 30.9108 15.2305 32.252V39H12.3984V32.2617C12.3984 31.6628 12.2812 31.2266 12.0469 30.9531C11.8125 30.6732 11.3991 30.5332 10.8066 30.5332C9.96029 30.5332 9.37435 30.9368 9.04883 31.7441L9.05859 39H6.23633V32.2715C6.23633 31.6595 6.11589 31.2168 5.875 30.9434C5.63411 30.6699 5.22396 30.5332 4.64453 30.5332C3.84375 30.5332 3.26432 30.8652 2.90625 31.5293V39H0.0839844V28.4336H2.73047ZM16.9688 33.6191C16.9688 32.571 17.1706 31.6367 17.5742 30.8164C17.9779 29.9961 18.5573 29.3613 19.3125 28.9121C20.0742 28.4629 20.9564 28.2383 21.959 28.2383C23.3848 28.2383 24.5469 28.6745 25.4453 29.5469C26.3503 30.4193 26.8548 31.6042 26.959 33.1016L26.9785 33.8242C26.9785 35.4453 26.526 36.7474 25.6211 37.7305C24.7161 38.707 23.502 39.1953 21.9785 39.1953C20.4551 39.1953 19.2376 38.707 18.3262 37.7305C17.4212 36.7539 16.9688 35.4258 16.9688 33.7461V33.6191ZM19.791 33.8242C19.791 34.8268 19.9798 35.5951 20.3574 36.1289C20.735 36.6562 21.2754 36.9199 21.9785 36.9199C22.6621 36.9199 23.196 36.6595 23.5801 36.1387C23.9642 35.6113 24.1562 34.7715 24.1562 33.6191C24.1562 32.6361 23.9642 31.8743 23.5801 31.334C23.196 30.7936 22.6556 30.5234 21.959 30.5234C21.2689 30.5234 20.735 30.7936 20.3574 31.334C19.9798 31.8678 19.791 32.6979 19.791 33.8242ZM31.8027 36.7246H36.9688V39H28.1992V37.2812L33.1699 30.7188H28.3457V28.4336H36.8125V30.1035L31.8027 36.7246ZM32.5742 25.3867L34 23.9902H36.4121V24.0977L33.4629 26.8418H31.6758L28.7266 24.0781V23.9902H31.1387L32.5742 25.3867ZM43.4434 39.1953C41.8939 39.1953 40.6309 38.7201 39.6543 37.7695C38.6842 36.819 38.1992 35.5527 38.1992 33.9707V33.6973C38.1992 32.6361 38.4043 31.6888 38.8145 30.8555C39.2246 30.0156 39.804 29.3711 40.5527 28.9219C41.3079 28.4661 42.1673 28.2383 43.1309 28.2383C44.5762 28.2383 45.7122 28.694 46.5391 29.6055C47.3724 30.5169 47.7891 31.8092 47.7891 33.4824V34.6348H41.0605C41.1517 35.3249 41.4251 35.8783 41.8809 36.2949C42.3431 36.7116 42.9258 36.9199 43.6289 36.9199C44.7161 36.9199 45.5658 36.526 46.1777 35.7383L47.5645 37.291C47.1413 37.89 46.5684 38.3587 45.8457 38.6973C45.123 39.0293 44.3223 39.1953 43.4434 39.1953ZM43.1211 30.5234C42.5612 30.5234 42.1055 30.7122 41.7539 31.0898C41.4089 31.4674 41.1875 32.0078 41.0898 32.7109H45.0156V32.4863C45.0026 31.8613 44.8333 31.3796 44.5078 31.041C44.1823 30.696 43.7201 30.5234 43.1211 30.5234ZM52.0469 28.4336L52.1348 29.6152C52.8835 28.6973 53.8958 28.2383 55.1719 28.2383C56.5326 28.2383 57.4668 28.7754 57.9746 29.8496C58.7168 28.7754 59.7747 28.2383 61.1484 28.2383C62.2943 28.2383 63.1471 28.5736 63.707 29.2441C64.2669 29.9082 64.5469 30.9108 64.5469 32.252V39H61.7148V32.2617C61.7148 31.6628 61.5977 31.2266 61.3633 30.9531C61.1289 30.6732 60.7155 30.5332 60.123 30.5332C59.2767 30.5332 58.6908 30.9368 58.3652 31.7441L58.375 39H55.5527V32.2715C55.5527 31.6595 55.4323 31.2168 55.1914 30.9434C54.9505 30.6699 54.5404 30.5332 53.9609 30.5332C53.1602 30.5332 52.5807 30.8652 52.2227 31.5293V39H49.4004V28.4336H52.0469ZM9.5957 56.8145C9.5957 58.4421 9.22461 59.7474 8.48242 60.7305C7.74674 61.707 6.75065 62.1953 5.49414 62.1953C4.42643 62.1953 3.5638 61.8242 2.90625 61.082V66.0625H0.0839844V51.4336H2.70117L2.79883 52.4688C3.48242 51.6484 4.37435 51.2383 5.47461 51.2383C6.77669 51.2383 7.78906 51.7201 8.51172 52.6836C9.23438 53.6471 9.5957 54.9753 9.5957 56.668V56.8145ZM6.77344 56.6094C6.77344 55.6263 6.59766 54.8678 6.24609 54.334C5.90104 53.8001 5.39648 53.5332 4.73242 53.5332C3.84701 53.5332 3.23828 53.8717 2.90625 54.5488V58.875C3.2513 59.5716 3.86654 59.9199 4.75195 59.9199C6.09961 59.9199 6.77344 58.8164 6.77344 56.6094ZM10.9141 56.6191C10.9141 55.571 11.1159 54.6367 11.5195 53.8164C11.9232 52.9961 12.5026 52.3613 13.2578 51.9121C14.0195 51.4629 14.9017 51.2383 15.9043 51.2383C17.3301 51.2383 18.4922 51.6745 19.3906 52.5469C20.2956 53.4193 20.8001 54.6042 20.9043 56.1016L20.9238 56.8242C20.9238 58.4453 20.4714 59.7474 19.5664 60.7305C18.6615 61.707 17.4473 62.1953 15.9238 62.1953C14.4004 62.1953 13.1829 61.707 12.2715 60.7305C11.3665 59.7539 10.9141 58.4258 10.9141 56.7461V56.6191ZM13.7363 56.8242C13.7363 57.8268 13.9251 58.5951 14.3027 59.1289C14.6803 59.6562 15.2207 59.9199 15.9238 59.9199C16.6074 59.9199 17.1413 59.6595 17.5254 59.1387C17.9095 58.6113 18.1016 57.7715 18.1016 56.6191C18.1016 55.6361 17.9095 54.8743 17.5254 54.334C17.1413 53.7936 16.6009 53.5234 15.9043 53.5234C15.2142 53.5234 14.6803 53.7936 14.3027 54.334C13.9251 54.8678 13.7363 55.6979 13.7363 56.8242ZM25.3086 51.4336L25.3965 52.6152C26.1452 51.6973 27.1576 51.2383 28.4336 51.2383C29.7943 51.2383 30.7285 51.7754 31.2363 52.8496C31.9785 51.7754 33.0365 51.2383 34.4102 51.2383C35.556 51.2383 36.4089 51.5736 36.9688 52.2441C37.5286 52.9082 37.8086 53.9108 37.8086 55.252V62H34.9766V55.2617C34.9766 54.6628 34.8594 54.2266 34.625 53.9531C34.3906 53.6732 33.9772 53.5332 33.3848 53.5332C32.5384 53.5332 31.9525 53.9368 31.627 54.7441L31.6367 62H28.8145V55.2715C28.8145 54.6595 28.694 54.2168 28.4531 53.9434C28.2122 53.6699 27.8021 53.5332 27.2227 53.5332C26.4219 53.5332 25.8424 53.8652 25.4844 54.5293V62H22.6621V51.4336H25.3086ZM39.5469 56.6191C39.5469 55.571 39.7487 54.6367 40.1523 53.8164C40.556 52.9961 41.1354 52.3613 41.8906 51.9121C42.6523 51.4629 43.5345 51.2383 44.5371 51.2383C45.9629 51.2383 47.125 51.6745 48.0234 52.5469C48.9284 53.4193 49.4329 54.6042 49.5371 56.1016L49.5566 56.8242C49.5566 58.4453 49.1042 59.7474 48.1992 60.7305C47.2943 61.707 46.0801 62.1953 44.5566 62.1953C43.0332 62.1953 41.8158 61.707 40.9043 60.7305C39.9993 59.7539 39.5469 58.4258 39.5469 56.7461V56.6191ZM42.3691 56.8242C42.3691 57.8268 42.5579 58.5951 42.9355 59.1289C43.3132 59.6562 43.8535 59.9199 44.5566 59.9199C45.2402 59.9199 45.7741 59.6595 46.1582 59.1387C46.5423 58.6113 46.7344 57.7715 46.7344 56.6191C46.7344 55.6361 46.5423 54.8743 46.1582 54.334C45.7741 53.7936 45.2337 53.5234 44.5371 53.5234C43.847 53.5234 43.3132 53.7936 42.9355 54.334C42.5579 54.8678 42.3691 55.6979 42.3691 56.8242ZM54.3809 59.7246H59.5469V62H50.7773V60.2812L55.748 53.7188H50.9238V51.4336H59.3906V53.1035L54.3809 59.7246ZM55.1523 48.3867L56.5781 46.9902H58.9902V47.0977L56.041 49.8418H54.2539L51.3047 47.0781V46.9902H53.7168L55.1523 48.3867ZM66.0215 62.1953C64.472 62.1953 63.209 61.7201 62.2324 60.7695C61.2624 59.819 60.7773 58.5527 60.7773 56.9707V56.6973C60.7773 55.6361 60.9824 54.6888 61.3926 53.8555C61.8027 53.0156 62.3822 52.3711 63.1309 51.9219C63.8861 51.4661 64.7454 51.2383 65.709 51.2383C67.1543 51.2383 68.2904 51.694 69.1172 52.6055C69.9505 53.5169 70.3672 54.8092 70.3672 56.4824V57.6348H63.6387C63.7298 58.3249 64.0033 58.8783 64.459 59.2949C64.9212 59.7116 65.5039 59.9199 66.207 59.9199C67.2943 59.9199 68.1439 59.526 68.7559 58.7383L70.1426 60.291C69.7194 60.89 69.1465 61.3587 68.4238 61.6973C67.7012 62.0293 66.9004 62.1953 66.0215 62.1953ZM65.6992 53.5234C65.1393 53.5234 64.6836 53.7122 64.332 54.0898C63.987 54.4674 63.7656 55.0078 63.668 55.7109H67.5938V55.4863C67.5807 54.8613 67.4115 54.3796 67.0859 54.041C66.7604 53.696 66.2982 53.5234 65.6992 53.5234ZM74.625 51.4336L74.7129 52.6152C75.4616 51.6973 76.474 51.2383 77.75 51.2383C79.1107 51.2383 80.0449 51.7754 80.5527 52.8496C81.2949 51.7754 82.3529 51.2383 83.7266 51.2383C84.8724 51.2383 85.7253 51.5736 86.2852 52.2441C86.8451 52.9082 87.125 53.9108 87.125 55.252V62H84.293V55.2617C84.293 54.6628 84.1758 54.2266 83.9414 53.9531C83.707 53.6732 83.2936 53.5332 82.7012 53.5332C81.8548 53.5332 81.2689 53.9368 80.9434 54.7441L80.9531 62H78.1309V55.2715C78.1309 54.6595 78.0104 54.2168 77.7695 53.9434C77.5286 53.6699 77.1185 53.5332 76.5391 53.5332C75.7383 53.5332 75.1589 53.8652 74.8008 54.5293V62H71.9785V51.4336H74.625Z" fill="#fff"/>
</svg>
